<svg xmlns="http://www.w3.org/2000/svg" viewBox="0 0 32 32" width="32" height="32">
  <defs>
    <linearGradient id="g" x1="0" y1="0" x2="0" y2="1">
      <stop offset="0" stop-color="#4ca35a"/>
      <stop offset="1" stop-color="#2f6b3a"/>
    </linearGradient>
  </defs>
  <rect width="32" height="32" rx="8" fill="url(#g)"/>
  <path d="M16 6c3.6 0 6.5 2.7 6.5 6 0 .6-.1 1.2-.3 1.7 1.4.7 2.3 2.1 2.3 3.8 0 2.4-2 4.3-4.5 4.3H18v3.7c0 .3-.2.5-.5.5h-3c-.3 0-.5-.2-.5-.5V22H11c-2.5 0-4.5-1.9-4.5-4.3 0-1.7.9-3.1 2.3-3.8-.2-.5-.3-1.1-.3-1.7 0-3.3 2.9-6 6.5-6z" fill="#fff" opacity=".95"/>
  <rect x="14.7" y="18" width="2.6" height="9" rx="1" fill="#2f6b3a"/>
</svg>
